# xmcd CD Database Entry
#
# Track frame offsets:
# 150
# 14885
# 27200
# 40062
# 53492
# 62302
# 78992
# 90837
# 101680
# 114162
# 124222
# 133995
# 144562
# 158315
# 169707
# 180740
#
# Disc length: 2565 seconds
#
# Revision: 3
# Processed by: cddbd v1.4PL0 Copyright (c) Steve Scherf et al.
# Submitted via: tcd 2.0b
#
DISCID=c10a0310
DTITLE=Good Old Country Music
DYEAR=1900
DGENRE=
TTITLE0=Ringo - Lorne Green
TTITLE1=500 Miles Away From Home /Bobby Bare 
TTITLE2=The Three Bells (Les Trois Cloches) /the Browns
TTITLE3=Tennessee Waltz - Pee Wee King
TTITLE4=Wabash Cannonball - Danny Davis and Nashville Brass
TTITLE5=Mr. Bo Jungles - Tom T. Hall
TTITLE6=The End of The World - Skeeter Davis
TTITLE7=Last Date - Floyd Chamber
TTITLE8=Queen of the Silver Dollar - Dave and Sugar
TTITLE9=Ruby, Don't Take Your Love to Town - Waylon Jennings
TTITLE10=Cool Water - Sons of the Pioneers
TTITLE11=You Don't Bring me Flowers - Jim Ed Brown and Helen Cornelius
TTITLE12=Oh, Lonesome Me - Don Gibson
TTITLE13=Guitar Man - Jerry Reed
TTITLE14=Orange Blossom Special - Bill Monroe and the BlueGrass Boys
TTITLE15=the railroad track????
EXTD=
EXTT0=
EXTT1=
EXTT2=
EXTT3=
EXTT4=
EXTT5=
EXTT6=
EXTT7=
EXTT8=
EXTT9=
EXTT10=
EXTT11=
EXTT12=
EXTT13=
EXTT14=
EXTT15=
PLAYORDER=
